<svg width="64" height="64" viewBox="0 0 64 64" fill="none" xmlns="http://www.w3.org/2000/svg">
<rect width="64" height="64" rx="32" fill="#F5F5F5"/>
<path fill-rule="evenodd" clip-rule="evenodd" d="M34.6478 9.65185C33.0094 8.70589 30.9907 8.70589 29.3523 9.65185L13.9698 18.5329C12.3313 19.4789 11.322 21.2271 11.322 23.119V40.8812C11.322 42.7731 12.3313 44.5213 13.9698 45.4672L29.3523 54.3483C30.9907 55.2943 33.0094 55.2943 34.6478 54.3483L50.0303 45.4672C51.6687 44.5213 52.6781 42.7731 52.6781 40.8812V23.119C52.6781 21.2271 51.6687 19.4789 50.0303 18.5329L34.6478 9.65185ZM15.4773 42.8561C15.0762 42.6245 14.7627 42.2813 14.5667 41.8785L31.0905 13.2585V51.8535C31.012 51.8194 30.935 51.7806 30.8598 51.7372L15.4773 42.8561ZM32.9096 51.8535V13.2585L49.4334 41.8785C49.2374 42.2813 48.9238 42.6245 48.5227 42.8561L33.1403 51.7372C33.0651 51.7806 32.9881 51.8194 32.9096 51.8535ZM15.4773 21.1441L28.9171 13.3846L14.3371 38.6379V23.119C14.3371 22.3043 14.7717 21.5514 15.4773 21.1441ZM49.663 38.6379L35.083 13.3846L48.5227 21.1441C49.2283 21.5514 49.663 22.3043 49.663 23.119V38.6379Z" fill="black"/>
</svg>
