<svg xmlns="http://www.w3.org/2000/svg" width="24" height="24" viewBox="0 0 24 24" fill="none">
<path d="M19.156 5.61585C21.4792 9.04818 22.6266 12.9198 22.1977 17.3768C22.1959 17.3957 22.1861 17.413 22.1707 17.4244C20.4113 18.7225 18.7067 19.5103 17.026 20.0327C17.013 20.0367 16.999 20.0365 16.986 20.0321C16.973 20.0277 16.9618 20.0194 16.9538 20.0082C16.5655 19.4653 16.2127 18.893 15.9036 18.292C15.8859 18.2566 15.9021 18.214 15.9386 18.2C16.4989 17.9879 17.0317 17.7337 17.5442 17.4327C17.5846 17.4089 17.5871 17.3507 17.5498 17.3228C17.4411 17.2417 17.3333 17.1564 17.2302 17.0712C17.2109 17.0554 17.185 17.0523 17.1631 17.0629C13.8359 18.6067 10.1912 18.6067 6.8247 17.0629C6.80284 17.0531 6.77687 17.0565 6.7581 17.072C6.65524 17.1572 6.54724 17.2417 6.4395 17.3228C6.40221 17.3507 6.4053 17.4089 6.44593 17.4327C6.95841 17.728 7.49121 17.9879 8.05075 18.2011C8.08701 18.215 8.10424 18.2566 8.08624 18.292C7.78384 18.8938 7.43104 19.4661 7.03555 20.009C7.01833 20.0309 6.99004 20.041 6.9633 20.0327C5.29059 19.5103 3.58599 18.7225 1.82662 17.4244C1.81197 17.413 1.80142 17.3949 1.79988 17.3761C1.44143 13.5208 2.17197 9.61714 4.83879 5.61507C4.84522 5.60448 4.85499 5.59621 4.8663 5.5913C6.1785 4.98617 7.5843 4.54098 9.05361 4.28673C9.08035 4.2826 9.10709 4.295 9.12098 4.31877C9.30252 4.64175 9.51003 5.05593 9.65043 5.39441C11.1992 5.1567 12.7721 5.1567 14.3533 5.39441C14.4937 5.06317 14.694 4.64175 14.8748 4.31877C14.8812 4.30698 14.8912 4.29753 14.9033 4.29178C14.9154 4.28603 14.929 4.28426 14.9422 4.28673C16.4122 4.54176 17.818 4.98695 19.1292 5.5913C19.1408 5.59621 19.1503 5.60448 19.156 5.61585ZM10.4378 12.9461C10.454 11.8064 9.62703 10.8633 8.58895 10.8633C7.55935 10.8633 6.74035 11.7981 6.74035 12.9461C6.74035 14.0939 7.57555 15.0287 8.58895 15.0287C9.6188 15.0287 10.4378 14.0939 10.4378 12.9461ZM17.2732 12.9461C17.2894 11.8064 16.4624 10.8633 15.4246 10.8633C14.3947 10.8633 13.5757 11.7981 13.5757 12.9461C13.5757 14.0939 14.4109 15.0287 15.4246 15.0287C16.4624 15.0287 17.2732 14.0939 17.2732 12.9461Z" fill="#141413"/>
</svg>