<svg xmlns="http://www.w3.org/2000/svg" width="24" height="24" viewBox="0 0 24 24" fill="none">
  <path fill-rule="evenodd" clip-rule="evenodd" d="M12.0081 1.71216C6.31565 1.71216 1.71387 6.30236 1.71387 11.9811C1.71387 16.5204 4.66239 20.3628 8.75277 21.7227C9.26417 21.825 9.4515 21.5018 9.4515 21.2299C9.4515 20.9919 9.43464 20.1758 9.43464 19.3256C6.57104 19.9378 5.97472 18.1015 5.97472 18.1015C5.51452 16.9114 4.83265 16.6055 4.83265 16.6055C3.89539 15.9764 4.90092 15.9764 4.90092 15.9764C5.94058 16.0445 6.48612 17.0305 6.48612 17.0305C7.40631 18.5945 8.8891 18.1526 9.48563 17.8805C9.57076 17.2175 9.84364 16.7584 10.1334 16.5035C7.84944 16.2654 5.44646 15.3814 5.44646 11.4369C5.44646 10.3148 5.85524 9.39679 6.50298 8.6828C6.40078 8.42784 6.04278 7.37355 6.60538 5.96248C6.60538 5.96248 7.47458 5.69041 9.43443 7.01656C10.2735 6.79178 11.1388 6.67743 12.0081 6.67647C12.8773 6.67647 13.7633 6.7956 14.5815 7.01656C16.5416 5.69041 17.4108 5.96248 17.4108 5.96248C17.9734 7.37355 17.6152 8.42784 17.513 8.6828C18.1778 9.39679 18.5697 10.3148 18.5697 11.4369C18.5697 15.3814 16.1667 16.2483 13.8657 16.5035C14.2408 16.8265 14.5645 17.4384 14.5645 18.4076C14.5645 19.7846 14.5476 20.8898 14.5476 21.2297C14.5476 21.5018 14.7352 21.825 15.2463 21.723C19.3367 20.3626 22.2852 16.5204 22.2852 11.9811C22.3021 6.30236 17.6835 1.71216 12.0081 1.71216Z" fill="#141413"/>
</svg>