<svg width="180" height="30" viewBox="0 0 180 30" fill="none" xmlns="http://www.w3.org/2000/svg">
<path fill-rule="evenodd" clip-rule="evenodd" d="M15.1744 0.461539C14.1085 -0.153846 12.7953 -0.153847 11.7294 0.461538L1.72249 6.23905C0.656608 6.85444 0 7.99171 0 9.22249V20.7775C0 22.0083 0.656606 23.1456 1.72248 23.761L11.7294 29.5385C12.7953 30.1538 14.1085 30.1538 15.1744 29.5385L25.1813 23.761C26.2472 23.1456 26.9038 22.0083 26.9038 20.7775V9.22249C26.9038 7.99172 26.2472 6.85444 25.1813 6.23905L15.1744 0.461539ZM2.7032 22.0623C2.44227 21.9117 2.23828 21.6884 2.11081 21.4263L12.8602 2.80779V27.9155C12.8092 27.8933 12.7591 27.868 12.7101 27.8398L2.7032 22.0623ZM14.0436 27.9155V2.80779L24.793 21.4263C24.6655 21.6884 24.4616 21.9117 24.2006 22.0623L14.1937 27.8398C14.1448 27.868 14.0947 27.8933 14.0436 27.9155ZM2.7032 7.9377L11.4463 2.88985L1.96143 19.3182V9.22249C1.96143 8.69247 2.24419 8.20271 2.7032 7.9377ZM24.9424 19.3182L15.4575 2.88985L24.2006 7.9377C24.6596 8.20271 24.9424 8.69247 24.9424 9.22249V19.3182ZM58.9034 22.3452V7.48486H60.9867V22.3452H58.9034ZM97.6209 17.2647C97.6209 14.158 99.7225 12.1113 102.391 12.1113C103.706 12.1113 105.095 12.7326 105.863 13.6829V7.49045H107.964V22.345H105.863V20.8282C105.223 21.7419 104.017 22.5094 102.372 22.5094C99.7225 22.5094 97.6209 20.3713 97.6209 17.2647ZM105.863 17.3012C105.863 15.1448 104.382 13.9205 102.811 13.9205C101.258 13.9205 99.759 15.09 99.759 17.2647C99.759 19.4393 101.258 20.7003 102.811 20.7003C104.382 20.7003 105.863 19.4759 105.863 17.3012ZM112.784 22.3453V17.0458C112.784 14.9077 113.744 14.241 115.279 14.241C115.417 14.241 115.845 14.241 116.261 14.4143L116.783 12.3236C116.458 12.1346 116.032 12.1117 115.799 12.1117C114.374 12.1117 113.369 12.733 112.784 13.7381V12.2761H110.701V22.3453H112.784ZM121.974 12.1117C119.324 12.1117 117.222 14.1584 117.222 17.2651C117.222 20.3717 119.324 22.5098 121.937 22.5098C123.618 22.5098 124.825 21.7057 125.464 20.8468V22.3453H127.566V12.2761H125.464V13.7381C124.843 12.9157 123.673 12.1117 121.974 12.1117ZM122.412 13.9208C123.984 13.9208 125.464 15.1452 125.464 17.3016C125.464 19.4763 123.984 20.7006 122.412 20.7006C120.859 20.7006 119.361 19.4397 119.361 17.2651C119.361 15.0904 120.859 13.9208 122.412 13.9208ZM88.3142 16.4062C88.5335 14.8163 89.6665 13.866 91.0736 13.866C92.6269 13.866 93.8513 14.8528 93.8879 16.4062H88.3142ZM91.165 22.5098C93.632 22.5098 95.2219 21.1027 95.7884 19.3483H93.5407C93.1569 20.1341 92.4442 20.7555 91.165 20.7555C89.6299 20.7555 88.4421 19.7504 88.2959 18.0874H95.9894C96.0443 17.7402 96.0625 17.4112 96.0625 17.064C96.0625 14.1036 94.0341 12.1117 91.165 12.1117C88.1863 12.1117 86.1395 14.1401 86.1395 17.3016C86.1395 20.4631 88.2776 22.5098 91.165 22.5098ZM74.7636 22.3453V7.49243H76.8469V13.4457C77.5413 12.6051 78.6744 12.1116 79.9718 12.1116C82.2196 12.1116 83.9739 13.5919 83.9739 16.4061V22.3453H81.9089V16.7168C81.9089 14.8711 80.9038 13.9208 79.3871 13.9208C77.852 13.9208 76.8469 14.8711 76.8469 16.7168V22.3453H74.7636ZM70.8438 12.2761L67.9016 19.9514L65.0691 12.2761H62.7482L66.7138 22.1809L64.667 27.0784H66.8234L73.0002 12.2761H70.8438ZM51.6806 22.5098C54.6041 22.5098 56.9725 20.4631 56.9725 17.3016C56.9725 14.1401 54.6781 12.1117 51.7731 12.1117C48.8682 12.1117 46.5738 14.1401 46.5738 17.3016C46.5738 20.4631 48.7757 22.5098 51.6806 22.5098ZM51.6806 20.7006C50.0894 20.7006 48.672 19.602 48.672 17.3177C48.672 15.0334 50.1449 13.9208 51.7361 13.9208C53.3089 13.9208 54.8809 15.0173 54.8809 17.3016C54.8809 19.5859 53.2534 20.7006 51.6806 20.7006ZM37.6014 14.3304H40.902C42.8037 14.3304 43.8766 13.4115 43.8766 11.9157C43.8766 10.3772 42.8037 9.47975 40.902 9.47975H37.6014V14.3304ZM45.9559 11.9157C45.9559 14.0312 44.7696 16.3176 40.902 16.3176H37.6014V22.3435L35.5182 22.3435V7.49252L40.902 7.4925C44.4277 7.4925 45.9559 9.50112 45.9559 11.9157Z" fill="#141413"/>
<path opacity="0.8" d="M139.299 10.3972C143.378 10.3972 145.89 12.7841 145.89 16.6316C145.89 20.4791 143.378 22.8125 139.299 22.8125H135.434V10.3972H139.299ZM137.055 21.4766H139.299C142.541 21.4766 144.233 19.6597 144.233 16.6316C144.233 13.6034 142.541 11.7153 139.299 11.7153H137.055V21.4766ZM157.291 17.9141C157.291 21.0134 155.064 22.9728 152.285 22.9728C149.524 22.9728 147.422 21.0134 147.422 17.9141C147.422 14.8325 149.596 12.8909 152.356 12.8909C155.135 12.8909 157.291 14.8325 157.291 17.9141ZM149.079 17.9141C149.079 20.39 150.593 21.5478 152.285 21.5478C153.977 21.5478 155.634 20.39 155.634 17.9141C155.634 15.4559 154.013 14.2981 152.339 14.2981C150.629 14.2981 149.079 15.4559 149.079 17.9141ZM158.816 17.9141C158.816 14.8503 160.793 12.8909 163.572 12.8909C165.995 12.8909 167.58 14.1378 168.079 16.1862H166.333C165.995 15.0106 165.015 14.2625 163.572 14.2625C161.791 14.2625 160.473 15.5272 160.473 17.9141C160.473 20.3366 161.791 21.6012 163.572 21.6012C165.015 21.6012 165.977 20.9066 166.333 19.6775H168.079C167.58 21.6191 165.995 22.9728 163.572 22.9728C160.793 22.9728 158.816 21.0134 158.816 17.9141ZM177.26 20.1584C177.26 21.7616 175.852 22.9728 173.697 22.9728C171.417 22.9728 169.814 21.7259 169.707 19.9447H171.381C171.471 20.8887 172.308 21.6012 173.679 21.6012C174.962 21.6012 175.674 20.96 175.674 20.1584C175.674 17.9853 169.903 19.25 169.903 15.6162C169.903 14.12 171.31 12.8909 173.483 12.8909C175.639 12.8909 177.064 14.0487 177.171 15.9547H175.55C175.478 14.975 174.73 14.2625 173.43 14.2625C172.236 14.2625 171.524 14.8325 171.524 15.6162C171.524 17.9319 177.188 16.6672 177.26 20.1584Z" fill="#141413"/>
</svg>
